# AST/ASF file generated using VICON BodyLanguage
# -----------------------------------------------
:version 1.10
:name VICON
:units
  mass 1.0
  length 0.45
  angle deg
:documentation
   .ast/.asf automatically generated from VICON data using
   VICON BodyBuilder and BodyLanguage model FoxedUp or BRILLIANT.MOD
:root
   order TX TY TZ RX RY RZ
   axis XYZ
   position 0 0 0  
   orientation 0 0 0 
:bonedata
  begin
     id 1 
     name lhipjoint
     direction 0.621036 -0.695554 0.361275 
     length 2.46325 
     axis 0 0 0  XYZ
  end
  begin
     id 2 
     name lfemur
     direction 0.34202 -0.939693 0  
     length 6.54784  
     axis 0 0 20  XYZ
    dof rx ry rz
    limits (-160.0 20.0)
           (-70.0 70.0)
           (-60.0 70.0)
  end
  begin
     id 3 
     name ltibia
     direction 0.34202 -0.939693 0   
     length 7.84737   
     axis 0 0 20   XYZ
    dof rx
    limits (-10.0 170.0)
  end
  begin
     id 4 
     name lfoot
     direction 0.0790693 -0.217241 0.97291   
     length 2.59747   
     axis -90 7.62852e-016 20   XYZ
    dof rx rz
    limits (-45.0 90.0)
           (-70.0 20.0)
  end
  begin
     id 5 
     name ltoes
     direction 1.53572e-011 -4.21898e-011 1   
     length 1.29919   
     axis -90 7.62852e-016 20   XYZ
    dof rx
    limits (-90.0 20.0)
  end
  begin
     id 6 
     name rhipjoint
     direction -0.602353 -0.708375 0.367935   
     length 2.41867  
     axis 0 0 0  XYZ 
  end
  begin
     id 7 
     name rfemur
     direction -0.34202 -0.939693 0   
     length 6.92065   
     axis 0 0 -20   XYZ
    dof rx ry rz
    limits (-160.0 20.0)
           (-70.0 70.0)
           (-70.0 60.0)
  end
  begin
     id 8 
     name rtibia
     direction -0.34202 -0.939693 0   
     length 7.88883   
     axis 0 0 -20   XYZ
    dof rx
    limits (-10.0 170.0)
 end
 begin
     id 9 
     name rfoot
     direction -0.0768692 -0.211196 0.974416   
     length 2.43714  
     axis -90 -7.62852e-016 -20   XYZ
    dof rx rz
    limits (-45.0 90.0)
           (-20.0 70.0)
  end
  begin
     id 10 
     name rtoes
     direction -1.53575e-011 -4.21933e-011 1   
     length 1.22113   
     axis -90 -7.62852e-016 -20   XYZ
    dof rx
    limits (-90.0 20.0)
  end
  begin
     id 11 
     name lowerback
     direction 0.0197937 0.98943 -0.143655   
     length 2.16931   
     axis 0 0 0   XYZ
    dof rx ry rz
    limits (-20.0 45.0)
           (-30.0 30.0)
           (-30.0 30.0)
  end
  begin
     id 12 
     name upperback
     direction -0.00183968 0.999975 0.00684288   
     length 2.17221   
     axis 0 0 0   XYZ
    dof rx ry rz
    limits (-20.0 45.0)
           (-30.0 30.0)
           (-30.0 30.0)
  end
  begin
     id 13 
     name thorax
     direction -0.00950244 0.997208 0.0740685   
     length 2.22549   
     axis 0 0 0   XYZ
    dof rx ry rz
    limits (-20.0 45.0)
           (-30.0 30.0)
           (-30.0 30.0)
  end
  begin
     id 14 
     name lowerneck
     direction 0.0218238 0.996215 0.0841425   
     length 1.77269   
     axis 0 0 0   XYZ
    dof rx ry rz
    limits (-20.0 45.0)
           (-30.0 30.0)
           (-30.0 30.0)
  end
  begin
     id 15 
     name upperneck
     direction -0.00430652 0.994214 -0.107332   
     length 1.76534   
     axis 0 0 0   XYZ
    dof rx ry rz
    limits (-20.0 45.0)
           (-30.0 30.0)
           (-30.0 30.0)
  end
  begin
     id 16
     name head
     direction -0.00328946 0.998959 -0.0454998  
     length 1.82634  
     axis 0 0 0   XYZ
    dof rx ry rz
    limits (-20.0 45.0)
           (-30.0 30.0)
           (-30.0 30.0)
  end
  begin
     id 17 
     name lclavicle
     direction 0.970962 0.239191 0.00450212  
     length 3.84872  
     axis 0 0 0   XYZ
    dof ry rz
    limits (-20.0 10.0)
           (0.0 20.0)
  end
  begin
     id 18 
     name lhumerus
     direction 1 -4.48966e-011 5.74696e-028   
     length 5.22771   
     axis 180 -30 -90   XYZ
    dof rx ry rz
    limits (-60.0 90.0)
           (-90.0 90.0)
           (-90.0 90.0)
  end
  begin
     id 19
     name lradius
     direction 1 -4.4896e-011 4.25109e-027   
     length 3.45251   
     axis 180 -30 -90   XYZ
    dof rx
    limits (-10.0 170.0)
  end
  begin
     id 20
     name lwrist
     direction 1 -4.48971e-011 1.15382e-027   
     length 1.72626   
     axis -5.52449e-016 90 90   XYZ
    dof ry
    limits (-180.0 0.0)
 end
  begin
     id 21 
     name lhand
     direction 1 -4.49034e-011 2.30765e-027   
     length 0.552119   
     axis -1.47248e-015 90 90   XYZ
    dof rx rz
    limits (-90.0 90.0)
           (-45.0 45.0)
  end
  begin
     id 22 
     name lfingers
     direction 1 -4.48951e-011 4.61529e-027   
     length 0.445133   
     axis -2.94495e-015 90 90   XYZ
    dof rx
    limits (0.0 90.0)
  end
  begin
     id 23
     name lthumb
     direction 0.707107 -6.34991e-011 0.707107   
     length 0.639124   
     axis -90 45 2.85299e-015   XYZ
    dof rx rz
    limits (-45.0 45.0)
           (-45.0 45.0)
  end
  begin
     id 24 
     name rclavicle
     direction -0.97424 0.222511 -0.0366699   
     length 3.73439  
     axis 0 0 0   XYZ 
    dof ry rz
    limits (-10.0 20.0)
           (-20.0 0.0)
  end
  begin
     id 25 
     name rhumerus
     direction -1 -4.48956e-011 -4.97258e-028  
     length 5.2398   
     axis 180 30 90   XYZ
    dof rx ry rz
    limits (-90.0 60.0)
           (-90.0 90.0)
           (-90.0 90.0)
  end
  begin
     id 26 
     name rradius
     direction -1 -4.4897e-011 -1.72611e-027   
     length 3.48042   
     axis 180 30 90   XYZ
    dof rx
    limits (-10.0 170.0)
  end
  begin
     id 27 
     name rwrist
     direction -1 -4.48976e-011 1.15382e-027   
     length 1.74021   
     axis -5.52449e-016 -90 -90   XYZ
    dof ry
    limits (-180.0 0.0)
  end
  begin
     id 28
     name rhand
     direction -1 -4.48963e-011 2.30765e-027   
     length 0.618713   
     axis -1.47248e-015 -90 -90   XYZ
    dof rx rz
    limits (-90.0 90.0)
           (-45.0 45.0)
  end
  begin
     id 29
     name rfingers
     direction -1 -4.4888e-011 4.61529e-027   
     length 0.498823   
     axis -2.94495e-015 -90 -90   XYZ
    dof rx
    limits (0.0 90.0)
  end
  begin
     id 30
     name rthumb
     direction -0.707107 -6.34968e-011 0.707107   
     length 0.716213   
     axis -90 -45 -2.85299e-015   XYZ
    dof rx rz
    limits (-45.0 45.0)
           (-45.0 45.0)
  end
:hierarchy
  begin
    root lhipjoint rhipjoint lowerback
    lhipjoint lfemur
    lfemur ltibia
    ltibia lfoot
    lfoot ltoes
    rhipjoint rfemur
    rfemur rtibia
    rtibia rfoot
    rfoot rtoes
    lowerback upperback
    upperback thorax
    thorax lowerneck lclavicle rclavicle
    lowerneck upperneck
    upperneck head
    lclavicle lhumerus
    lhumerus lradius
    lradius lwrist
    lwrist lhand lthumb
    lhand lfingers
    rclavicle rhumerus
    rhumerus rradius
    rradius rwrist
    rwrist rhand rthumb
    rhand rfingers
  end

#!OML:ASF G:\JayActor3\Patient Classification 1\Patient 1\Session 5\male.ASF
:FULLY-SPECIFIED
:DEGREES
303
root -25.7662 16.7851 -5.90583 -90.3695 82.9819 -87.6612
lowerback 1.39332 -0.77861 7.9634
upperback 2.37012 -0.977108 0.99255
thorax 1.55691 -0.344139 -3.43296
lowerneck -7.90947 0.0010086 2.11375
upperneck 10.1087 -0.427046 1.9404
head 4.80304 0.00413717 0.256492
rclavicle 5.24295e-015 -5.1684e-015
rhumerus -32.4095 -2.14383 -87.5215
rradius 32.5617
rwrist -2.24875
rhand -19.2047 -8.2964
rfingers 7.12502
rthumb 7.10753 -38.1571
lclavicle 5.24295e-015 -5.1684e-015
lhumerus -33.3053 5.96913 83.841
lradius 23.7534
lwrist 15.2907
lhand -16.9027 12.8024
lfingers 7.12502
lthumb 9.32927 42.576
rfemur 3.45901 -0.548962 34.325
rtibia 24.4351
rfoot -24.9021 -11.4453
rtoes 7.97655
lfemur -26.3645 3.57028 -14.6642
ltibia 34.1055
lfoot -15.3061 11.7134
ltoes -14.741
304
root -25.6642 16.782 -5.90406 -89.6947 82.9336 -87.065
lowerback 1.36614 -0.751914 8.03231
upperback 2.35522 -0.943368 0.995447
thorax 1.56012 -0.326514 -3.46881
lowerneck -7.91157 -0.00380065 2.10023
upperneck 10.0611 -0.43343 1.95803
head 4.786 0.000458205 0.264293
rclavicle 2.16178e-015 2.38542e-015
rhumerus -32.3916 -2.13965 -87.5552
rradius 32.5237
rwrist -2.15819
rhand -19.0342 -8.47141
rfingers 7.12502
rthumb 7.27211 -38.3264
lclavicle 2.16178e-015 2.38542e-015
lhumerus -33.3691 5.968 83.8576
lradius 23.7094
lwrist 15.1927
lhand -16.885 12.9297
lfingers 7.12502
lthumb 9.34632 42.7025
rfemur 4.02235 -0.557641 34.3751
rtibia 23.9293
rfoot -24.8299 -11.5152
rtoes 7.73129
lfemur -26.5181 3.9621 -14.9702
ltibia 32.494
lfoot -15.2344 11.7424
ltoes -14.6664
305
root -25.5614 16.7782 -5.90245 -89.2597 82.8858 -86.704
lowerback 1.34168 -0.73401 8.09682
upperback 2.34334 -0.921214 0.996831
thorax 1.56364 -0.314623 -3.5037
lowerneck -7.91864 -0.0106236 2.08478
upperneck 10.0083 -0.442935 1.98055
head 4.76809 -0.0046455 0.273882
rclavicle 1.2424e-015 -1.37161e-014
rhumerus -32.3823 -2.13587 -87.5934
rradius 32.4972
rwrist -2.06832
rhand -18.8484 -8.63677
rfingers 7.12502
rthumb 7.45153 -38.4855
lclavicle 1.2424e-015 -1.37161e-014
lhumerus -33.4292 5.9532 83.8781
lradius 23.6713
lwrist 15.1108
lhand -16.8846 13.0696
lfingers 7.12502
lthumb 9.34667 42.8424
rfemur 4.59651 -0.590008 34.4238
rtibia 23.4159
rfoot -24.7544 -11.583
rtoes 7.48571
lfemur -26.6429 4.33675 -15.2768
ltibia 30.9026
lfoot -15.1123 11.7131
ltoes -14.5568
306
root -25.4576 16.7739 -5.90103 -89.0388 82.8328 -86.5537
lowerback 1.31019 -0.722373 8.16159
upperback 2.33487 -0.908274 0.998947
thorax 1.57359 -0.306968 -3.53803
lowerneck -7.9142 -0.0195677 2.06882
upperneck 9.94371 -0.455175 2.00841
head 4.7435 -0.0110732 0.285133
rclavicle 9.24349e-015 -2.26615e-014
rhumerus -32.3855 -2.12868 -87.6361
rradius 32.4859
rwrist -1.98376
rhand -18.7331 -8.68172
rfingers 7.12502
rthumb 7.56273 -38.5265
lclavicle 9.24349e-015 -2.26615e-014
lhumerus -33.4808 5.93295 83.8973
lradius 23.6264
lwrist 15.0387
lhand -16.8937 13.2094
lfingers 7.12502
lthumb 9.33794 42.9826
rfemur 5.1823 -0.635579 34.4804
rtibia 22.8928
rfoot -24.6809 -11.6542
rtoes 7.23379
lfemur -26.7427 4.68235 -15.5691
ltibia 29.3457
lfoot -14.9538 11.6253
ltoes -14.4136
307
root -25.3529 16.7683 -5.89934 -89.1793 82.7728 -86.7561
lowerback 1.27591 -0.72534 8.22071
upperback 2.33436 -0.915389 1.00591
thorax 1.59108 -0.308843 -3.56419
lowerneck -7.9152 -0.0293755 2.04857
upperneck 9.87517 -0.468683 2.04092
head 4.71864 -0.0181015 0.298636
rclavicle -5.72748e-015 -2.24627e-014
rhumerus -32.3934 -2.11207 -87.6838
rradius 32.49
rwrist -1.90778
rhand -18.6961 -8.62633
rfingers 7.12502
rthumb 7.59852 -38.4698
lclavicle -5.72748e-015 -2.24627e-014
lhumerus -33.5159 5.9217 83.9137
lradius 23.5714
lwrist 14.9776
lhand -16.9056 13.3275
lfingers 7.12502
lthumb 9.32643 43.1012
rfemur 5.7873 -0.691461 34.5573
rtibia 22.3594
rfoot -24.6298 -11.7316
rtoes 7.01611
lfemur -26.8181 4.98629 -15.8412
ltibia 27.8377
lfoot -14.7735 11.4508
ltoes -14.1645
308
root -25.2479 16.7621 -5.89817 -89.3189 82.6987 -86.9626
lowerback 1.23802 -0.725637 8.29438
upperback 2.33309 -0.919254 1.01448
thorax 1.6101 -0.308792 -3.59683
lowerneck -7.91117 -0.042235 2.02797
upperneck 9.80145 -0.486414 2.07803
head 4.69092 -0.027071 0.313456
rclavicle -6.63444e-015 -1.78906e-015
rhumerus -32.4128 -2.09172 -87.7361
rradius 32.5076
rwrist -1.84298
rhand -18.7643 -8.45445
rfingers 7.12502
rthumb 7.53264 -38.3003
lclavicle -6.63444e-015 -1.78906e-015
lhumerus -33.5398 5.9147 83.9226
lradius 23.505
lwrist 14.9218
lhand -16.9178 13.4324
lfingers 7.12502
lthumb 9.31461 43.2066
rfemur 6.39105 -0.74841 34.6477
rtibia 21.8178
rfoot -24.5676 -11.8063
rtoes 6.7727
lfemur -26.8892 5.2629 -16.0826
ltibia 26.392
lfoot -14.5633 11.2338
ltoes -14.1022
309
root -25.142 16.7555 -5.89805 -89.2616 82.6136 -86.9821
lowerback 1.17761 -0.715343 8.38378
upperback 2.33601 -0.911595 1.02428
thorax 1.64748 -0.301862 -3.63731
lowerneck -7.91012 -0.057775 2.00685
upperneck 9.7264 -0.507622 2.11401
head 4.66336 -0.0378564 0.32774
rclavicle -2.9445e-015 -2.16675e-014
rhumerus -32.4343 -2.05904 -87.7936
rradius 32.5397
rwrist -1.79337
rhand -18.8998 -8.23142
rfingers 7.12502
rthumb 7.4019 -38.0819
lclavicle -2.9445e-015 -2.16675e-014
lhumerus -33.5468 5.92727 83.9209
lradius 23.4254
lwrist 14.8544
lhand -16.9118 13.524
lfingers 7.12502
lthumb 9.32049 43.2979
rfemur 6.99063 -0.799483 34.741
rtibia 21.2715
rfoot -24.4833 -11.8636
rtoes 6.50234
lfemur -26.9571 5.50437 -16.2886
ltibia 25.0207
lfoot -14.3384 10.9772
ltoes -14.1574
310
root -25.0351 16.7487 -5.89886 -89.0542 82.5242 -86.8608
lowerback 1.10304 -0.697469 8.48286
upperback 2.34017 -0.895545 1.033
thorax 1.69515 -0.290105 -3.68446
lowerneck -7.91877 -0.0742288 1.98156
upperneck 9.65483 -0.530284 2.15357
head 4.63916 -0.0492204 0.343917
rclavicle 2.07481e-015 -7.35503e-015
rhumerus -32.4582 -2.01142 -87.8575
rradius 32.5823
rwrist -1.75555
rhand -19.0431 -8.01457
rfingers 7.12502
rthumb 7.2635 -37.8699
lclavicle 2.07481e-015 -7.35503e-015
lhumerus -33.5427 5.95355 83.9095
lradius 23.3387
lwrist 14.7836
lhand -16.9077 13.6131
lfingers 7.12502
lthumb 9.32441 43.3869
rfemur 7.58377 -0.850416 34.8309
rtibia 20.7236
rfoot -24.3761 -11.9239
rtoes 6.16873
lfemur -27.0241 5.69854 -16.4606
ltibia 23.7352
lfoot -14.1109 10.701
ltoes -14.4432
311
root -24.9267 16.7422 -5.90069 -88.6306 82.4407 -86.5324
lowerback 1.00401 -0.666787 8.5813
upperback 2.34757 -0.865498 1.03729
thorax 1.7618 -0.270498 -3.73611
lowerneck -7.92716 -0.0949231 1.96023
upperneck 9.58292 -0.558391 2.18661
head 4.6148 -0.0634802 0.356794
rclavicle 5.98839e-015 -4.09496e-014
rhumerus -32.4842 -1.95515 -87.9256
rradius 32.6311
rwrist -1.71515
rhand -19.1493 -7.84375
rfingers 7.12502
rthumb 7.16106 -37.7026
lclavicle 5.98839e-015 -4.09496e-014
lhumerus -33.5325 5.98376 83.8935
lradius 23.2537
lwrist 14.7113
lhand -16.898 13.6766
lfingers 7.12502
lthumb 9.33372 43.45
rfemur 8.17115 -0.901899 34.903
rtibia 20.1776
rfoot -24.2453 -11.974
rtoes 5.80105
lfemur -27.0877 5.83687 -16.6018
ltibia 22.5467
lfoot -13.9026 10.4234
ltoes -14.8987
312
root -24.8171 16.7359 -5.90343 -88.0041 82.355 -86.0098
lowerback 0.890655 -0.625952 8.68553
upperback 2.35418 -0.823742 1.04037
thorax 1.8373 -0.244571 -3.79228
lowerneck -7.93953 -0.116358 1.93516
upperneck 9.51754 -0.587283 2.22018
head 4.5937 -0.078095 0.370506
rclavicle -5.44173e-015 2.82274e-014
rhumerus -32.5125 -1.88825 -87.9967
rradius 32.6812
rwrist -1.65131
rhand -19.1855 -7.7474
rfingers 7.12502
rthumb 7.12609 -37.6074
lclavicle -5.44173e-015 2.82274e-014
lhumerus -33.5197 6.0285 83.8689
lradius 23.164
lwrist 14.6196
lhand -16.8891 13.7278
lfingers 7.12502
lthumb 9.34231 43.5008
rfemur 8.74911 -0.959488 34.9646
rtibia 19.6375
rfoot -24.0846 -12.0228
rtoes 5.33608
lfemur -27.1512 5.92937 -16.7028
ltibia 21.4678
lfoot -13.7433 10.122
ltoes -15.3147
313
root -24.7067 16.7296 -5.9066 -87.313 82.2717 -85.4252
lowerback 0.778433 -0.581366 8.78368
upperback 2.35766 -0.77703 1.04191
thorax 1.90976 -0.216456 -3.84643
lowerneck -7.9541 -0.136746 1.91158
upperneck 9.45825 -0.614997 2.25323
head 4.57532 -0.0919626 0.38388
rclavicle -1.31695e-015 -5.56597e-015
rhumerus -32.5454 -1.81373 -88.0711
rradius 32.729
rwrist -1.55019
rhand -19.1449 -7.73031
rfingers 7.12502
rthumb 7.16531 -37.589
lclavicle -1.31695e-015 -5.56597e-015
lhumerus -33.5046 6.08908 83.836
lradius 23.0653
lwrist 14.5138
lhand -16.8958 13.7715
lfingers 7.12502
lthumb 9.33587 43.5447
rfemur 9.31747 -1.02507 35.017
rtibia 19.1125
rfoot -23.9054 -12.0781
rtoes 4.82414
lfemur -27.2135 5.99001 -16.7736
ltibia 20.5074
lfoot -13.6351 9.79074
ltoes -15.6677
314
root -24.596 16.7233 -5.91004 -86.623 82.1845 -84.8459
lowerback 0.667949 -0.537665 8.8793
upperback 2.35876 -0.731444 1.04525
thorax 1.97883 -0.189114 -3.89713
lowerneck -7.97297 -0.155117 1.8881
upperneck 9.40652 -0.640015 2.28412
head 4.5606 -0.10445 0.39671
rclavicle 2.04997e-015 3.57812e-015
rhumerus -32.5764 -1.72317 -88.1494
rradius 32.772
rwrist -1.40282
rhand -19.0968 -7.69123
rfingers 7.12502
rthumb 7.21167 -37.5483
lclavicle 2.04997e-015 3.57812e-015
lhumerus -33.4867 6.16337 83.7968
lradius 22.9623
lwrist 14.4104
lhand -16.916 13.8371
lfingers 7.12502
lthumb 9.31642 43.6113
rfemur 9.8695 -1.09218 35.0697
rtibia 18.6124
rfoot -23.7201 -12.1312
rtoes 4.29237
lfemur -27.2799 6.0339 -16.8133
ltibia 19.6728
lfoot -13.6057 9.40847
ltoes -15.9749
315
root -24.4852 16.7162 -5.91359 -85.9676 82.0847 -84.3039
lowerback 0.568712 -0.497514 8.98114
upperback 2.35343 -0.689258 1.05161
thorax 2.03459 -0.164062 -3.9479
lowerneck -7.99257 -0.16889 1.86487
upperneck 9.36132 -0.659181 2.31737
head 4.54844 -0.113774 0.410707
rclavicle 3.3048e-015 -2.98177e-015
rhumerus -32.61 -1.62184 -88.2333
rradius 32.8088
rwrist -1.20249
rhand -19.0328 -7.64578
rfingers 7.12502
rthumb 7.27351 -37.5008
lclavicle 3.3048e-015 -2.98177e-015
lhumerus -33.4662 6.27259 83.7385
lradius 22.841
lwrist 14.2863
lhand -16.9263 13.8708
lfingers 7.12502
lthumb 9.30641 43.6454
rfemur 10.4047 -1.15018 35.1355
rtibia 18.1446
rfoot -23.5419 -12.1658
rtoes 3.8071
lfemur -27.3524 6.08781 -16.8236
ltibia 18.9694
lfoot -13.6411 8.97186
ltoes -16.0757
316
root -24.3742 16.7086 -5.91716 -85.4012 81.9769 -83.8523
lowerback 0.480239 -0.462568 9.0836
upperback 2.34136 -0.652665 1.06055
thorax 2.07663 -0.142557 -3.99613
lowerneck -8.00616 -0.180102 1.8443
upperneck 9.32005 -0.674905 2.34955
head 4.53648 -0.121298 0.4241
rclavicle 8.4235e-015 -1.31198e-014
rhumerus -32.6458 -1.5133 -88.3201
rradius 32.8345
rwrist -0.951325
rhand -18.9626 -7.56526
rfingers 7.12502
rthumb 7.34129 -37.4179
lclavicle 8.4235e-015 -1.31198e-014
lhumerus -33.4525 6.40208 83.6668
lradius 22.7136
lwrist 14.1547
lhand -16.9405 13.8999
lfingers 7.12502
lthumb 9.29278 43.6751
rfemur 10.9214 -1.19513 35.2127
rtibia 17.7142
rfoot -23.3663 -12.1951
rtoes 3.33719
lfemur -27.433 6.16991 -16.8173
ltibia 18.4011
lfoot -13.714 8.46663
ltoes -16.1228
